<mxfile host="Electron" modified="2024-10-17T09:21:32.864Z" agent="Mozilla/5.0 (Windows NT 10.0; Win64; x64) AppleWebKit/537.36 (KHTML, like Gecko) draw.io/23.1.5 Chrome/120.0.6099.109 Electron/28.1.0 Safari/537.36" etag="IzIFkIwPjYPqjap4v18A" version="23.1.5" type="device">
  <diagram name="Page-1" id="3b1e6AGHyWd3WZ-OP9DQ">
    <mxGraphModel dx="1400" dy="-341" grid="1" gridSize="10" guides="1" tooltips="1" connect="1" arrows="1" fold="1" page="1" pageScale="1" pageWidth="827" pageHeight="1169" math="0" shadow="0">
      <root>
        <mxCell id="0" />
        <mxCell id="1" parent="0" />
        <mxCell id="u8uAa5u7nfPZjOfmbg5F-1" value="Zentrallager" style="swimlane;html=1;startSize=20;fontStyle=0;collapsible=0;horizontal=0;swimlaneLine=1;swimlaneFillColor=#ffffff;strokeWidth=2;whiteSpace=wrap;" vertex="1" parent="1">
          <mxGeometry x="40" y="1380" width="1090" height="260" as="geometry" />
        </mxCell>
        <mxCell id="u8uAa5u7nfPZjOfmbg5F-2" value="Zentrallagerbestand prüfen" style="shape=ext;rounded=1;html=1;whiteSpace=wrap;" vertex="1" parent="u8uAa5u7nfPZjOfmbg5F-1">
          <mxGeometry x="60" y="145" width="120" height="80" as="geometry" />
        </mxCell>
        <mxCell id="u8uAa5u7nfPZjOfmbg5F-3" value="Sofot lieferbar?" style="points=[[0.25,0.25,0],[0.5,0,0],[0.75,0.25,0],[1,0.5,0],[0.75,0.75,0],[0.5,1,0],[0.25,0.75,0],[0,0.5,0]];shape=mxgraph.bpmn.gateway2;html=1;verticalLabelPosition=bottom;labelBackgroundColor=#ffffff;verticalAlign=top;align=right;perimeter=rhombusPerimeter;outlineConnect=0;outline=none;symbol=none;gwType=exclusive;labelPosition=left;" vertex="1" parent="u8uAa5u7nfPZjOfmbg5F-1">
          <mxGeometry x="280" y="160" width="50" height="50" as="geometry" />
        </mxCell>
        <mxCell id="u8uAa5u7nfPZjOfmbg5F-4" style="edgeStyle=orthogonalEdgeStyle;rounded=0;orthogonalLoop=1;jettySize=auto;html=1;exitX=1;exitY=0.5;exitDx=0;exitDy=0;" edge="1" parent="u8uAa5u7nfPZjOfmbg5F-1" source="u8uAa5u7nfPZjOfmbg5F-2" target="u8uAa5u7nfPZjOfmbg5F-3">
          <mxGeometry relative="1" as="geometry" />
        </mxCell>
        <mxCell id="u8uAa5u7nfPZjOfmbg5F-5" value="Filiale über Lieferfrist informieren" style="shape=ext;rounded=1;html=1;whiteSpace=wrap;" vertex="1" parent="u8uAa5u7nfPZjOfmbg5F-1">
          <mxGeometry x="410" y="100" width="120" height="80" as="geometry" />
        </mxCell>
        <mxCell id="u8uAa5u7nfPZjOfmbg5F-6" style="edgeStyle=orthogonalEdgeStyle;rounded=0;orthogonalLoop=1;jettySize=auto;html=1;exitX=0.5;exitY=0;exitDx=0;exitDy=0;exitPerimeter=0;entryX=0;entryY=0.5;entryDx=0;entryDy=0;" edge="1" parent="u8uAa5u7nfPZjOfmbg5F-1" source="u8uAa5u7nfPZjOfmbg5F-3" target="u8uAa5u7nfPZjOfmbg5F-5">
          <mxGeometry relative="1" as="geometry" />
        </mxCell>
        <mxCell id="u8uAa5u7nfPZjOfmbg5F-7" value="Artikel lieferbar" style="points=[[0.145,0.145,0],[0.5,0,0],[0.855,0.145,0],[1,0.5,0],[0.855,0.855,0],[0.5,1,0],[0.145,0.855,0],[0,0.5,0]];shape=mxgraph.bpmn.event;html=1;verticalLabelPosition=bottom;labelBackgroundColor=#ffffff;verticalAlign=top;align=center;perimeter=ellipsePerimeter;outlineConnect=0;aspect=fixed;outline=throwing;symbol=general;" vertex="1" parent="u8uAa5u7nfPZjOfmbg5F-1">
          <mxGeometry x="610" y="115" width="50" height="50" as="geometry" />
        </mxCell>
        <mxCell id="u8uAa5u7nfPZjOfmbg5F-8" style="edgeStyle=orthogonalEdgeStyle;rounded=0;orthogonalLoop=1;jettySize=auto;html=1;exitX=1;exitY=0.5;exitDx=0;exitDy=0;entryX=0;entryY=0.5;entryDx=0;entryDy=0;entryPerimeter=0;" edge="1" parent="u8uAa5u7nfPZjOfmbg5F-1" source="u8uAa5u7nfPZjOfmbg5F-5" target="u8uAa5u7nfPZjOfmbg5F-7">
          <mxGeometry relative="1" as="geometry" />
        </mxCell>
        <mxCell id="u8uAa5u7nfPZjOfmbg5F-9" value="" style="points=[[0.25,0.25,0],[0.5,0,0],[0.75,0.25,0],[1,0.5,0],[0.75,0.75,0],[0.5,1,0],[0.25,0.75,0],[0,0.5,0]];shape=mxgraph.bpmn.gateway2;html=1;verticalLabelPosition=bottom;labelBackgroundColor=#ffffff;verticalAlign=top;align=right;perimeter=rhombusPerimeter;outlineConnect=0;outline=none;symbol=none;gwType=exclusive;labelPosition=left;" vertex="1" parent="u8uAa5u7nfPZjOfmbg5F-1">
          <mxGeometry x="710" y="160" width="50" height="50" as="geometry" />
        </mxCell>
        <mxCell id="u8uAa5u7nfPZjOfmbg5F-10" style="edgeStyle=orthogonalEdgeStyle;rounded=0;orthogonalLoop=1;jettySize=auto;html=1;exitX=1;exitY=0.5;exitDx=0;exitDy=0;exitPerimeter=0;entryX=0.5;entryY=0;entryDx=0;entryDy=0;entryPerimeter=0;" edge="1" parent="u8uAa5u7nfPZjOfmbg5F-1" source="u8uAa5u7nfPZjOfmbg5F-7" target="u8uAa5u7nfPZjOfmbg5F-9">
          <mxGeometry relative="1" as="geometry" />
        </mxCell>
        <mxCell id="u8uAa5u7nfPZjOfmbg5F-11" value="Ja" style="edgeStyle=orthogonalEdgeStyle;rounded=0;orthogonalLoop=1;jettySize=auto;html=1;exitX=0.5;exitY=1;exitDx=0;exitDy=0;exitPerimeter=0;entryX=0.5;entryY=1;entryDx=0;entryDy=0;entryPerimeter=0;" edge="1" parent="u8uAa5u7nfPZjOfmbg5F-1" source="u8uAa5u7nfPZjOfmbg5F-3" target="u8uAa5u7nfPZjOfmbg5F-9">
          <mxGeometry relative="1" as="geometry" />
        </mxCell>
        <mxCell id="u8uAa5u7nfPZjOfmbg5F-12" value="Artikel versenden" style="points=[[0.25,0,0],[0.5,0,0],[0.75,0,0],[1,0.25,0],[1,0.5,0],[1,0.75,0],[0.75,1,0],[0.5,1,0],[0.25,1,0],[0,0.75,0],[0,0.5,0],[0,0.25,0]];shape=mxgraph.bpmn.task;whiteSpace=wrap;rectStyle=rounded;size=10;html=1;container=1;expand=0;collapsible=0;taskMarker=abstract;" vertex="1" parent="u8uAa5u7nfPZjOfmbg5F-1">
          <mxGeometry x="830" y="145" width="120" height="80" as="geometry" />
        </mxCell>
        <mxCell id="u8uAa5u7nfPZjOfmbg5F-13" style="edgeStyle=orthogonalEdgeStyle;rounded=0;orthogonalLoop=1;jettySize=auto;html=1;exitX=1;exitY=0.5;exitDx=0;exitDy=0;exitPerimeter=0;entryX=0;entryY=0.5;entryDx=0;entryDy=0;entryPerimeter=0;" edge="1" parent="u8uAa5u7nfPZjOfmbg5F-1" source="u8uAa5u7nfPZjOfmbg5F-9" target="u8uAa5u7nfPZjOfmbg5F-12">
          <mxGeometry relative="1" as="geometry" />
        </mxCell>
        <mxCell id="u8uAa5u7nfPZjOfmbg5F-14" value="Zentralllagerbestand" style="shape=datastore;html=1;labelPosition=center;verticalLabelPosition=top;align=center;verticalAlign=bottom;" vertex="1" parent="u8uAa5u7nfPZjOfmbg5F-1">
          <mxGeometry x="210" y="30" width="70" height="70" as="geometry" />
        </mxCell>
        <mxCell id="u8uAa5u7nfPZjOfmbg5F-15" value="" style="edgeStyle=elbowEdgeStyle;fontSize=12;html=1;endFill=0;startFill=0;endSize=6;startSize=6;dashed=1;dashPattern=1 4;endArrow=none;startArrow=none;rounded=0;exitX=1.001;exitY=0.149;exitDx=0;exitDy=0;exitPerimeter=0;entryX=0.5;entryY=1;entryDx=0;entryDy=0;" edge="1" parent="u8uAa5u7nfPZjOfmbg5F-1" source="u8uAa5u7nfPZjOfmbg5F-2" target="u8uAa5u7nfPZjOfmbg5F-14">
          <mxGeometry width="160" relative="1" as="geometry">
            <mxPoint x="300" y="60" as="sourcePoint" />
            <mxPoint x="460" y="60" as="targetPoint" />
            <Array as="points">
              <mxPoint x="245" y="30" />
            </Array>
          </mxGeometry>
        </mxCell>
        <mxCell id="u8uAa5u7nfPZjOfmbg5F-16" value="Filiallager" style="swimlane;html=1;startSize=20;fontStyle=0;collapsible=0;horizontal=0;swimlaneLine=1;swimlaneFillColor=#ffffff;strokeWidth=2;whiteSpace=wrap;" vertex="1" parent="1">
          <mxGeometry x="40" y="1260" width="1090" height="120" as="geometry" />
        </mxCell>
        <mxCell id="u8uAa5u7nfPZjOfmbg5F-17" value="Nachbestellungsanfrage" style="points=[[0.145,0.145,0],[0.5,0,0],[0.855,0.145,0],[1,0.5,0],[0.855,0.855,0],[0.5,1,0],[0.145,0.855,0],[0,0.5,0]];shape=mxgraph.bpmn.event;html=1;verticalLabelPosition=middle;labelBackgroundColor=#ffffff;verticalAlign=middle;align=left;perimeter=ellipsePerimeter;outlineConnect=0;aspect=fixed;outline=standard;symbol=message;labelPosition=right;" vertex="1" parent="u8uAa5u7nfPZjOfmbg5F-16">
          <mxGeometry x="95" y="20" width="50" height="50" as="geometry" />
        </mxCell>
        <mxCell id="u8uAa5u7nfPZjOfmbg5F-18" value="Artikel eingetroffen" style="points=[[0.145,0.145,0],[0.5,0,0],[0.855,0.145,0],[1,0.5,0],[0.855,0.855,0],[0.5,1,0],[0.145,0.855,0],[0,0.5,0]];shape=mxgraph.bpmn.event;html=1;verticalLabelPosition=middle;labelBackgroundColor=#ffffff;verticalAlign=middle;align=right;perimeter=ellipsePerimeter;outlineConnect=0;aspect=fixed;outline=end;symbol=terminate2;labelPosition=left;" vertex="1" parent="u8uAa5u7nfPZjOfmbg5F-16">
          <mxGeometry x="980" y="25" width="50" height="50" as="geometry" />
        </mxCell>
        <mxCell id="u8uAa5u7nfPZjOfmbg5F-19" value="Lieferfristinfromation erhalten" style="points=[[0.145,0.145,0],[0.5,0,0],[0.855,0.145,0],[1,0.5,0],[0.855,0.855,0],[0.5,1,0],[0.145,0.855,0],[0,0.5,0]];shape=mxgraph.bpmn.event;html=1;verticalLabelPosition=middle;labelBackgroundColor=#ffffff;verticalAlign=middle;align=left;perimeter=ellipsePerimeter;outlineConnect=0;aspect=fixed;outline=throwing;symbol=general;labelPosition=right;" vertex="1" parent="u8uAa5u7nfPZjOfmbg5F-16">
          <mxGeometry x="445" y="25" width="50" height="50" as="geometry" />
        </mxCell>
        <mxCell id="u8uAa5u7nfPZjOfmbg5F-20" value="Lieferfristinformation" style="endArrow=blockThin;html=1;labelPosition=left;verticalLabelPosition=middle;align=right;verticalAlign=middle;dashed=1;dashPattern=8 4;endFill=0;startArrow=oval;startFill=0;endSize=6;startSize=4;rounded=0;entryX=0.5;entryY=1;entryDx=0;entryDy=0;entryPerimeter=0;exitX=0.5;exitY=0;exitDx=0;exitDy=0;" edge="1" parent="u8uAa5u7nfPZjOfmbg5F-16" source="u8uAa5u7nfPZjOfmbg5F-5">
          <mxGeometry relative="1" as="geometry">
            <mxPoint x="469.09000000000003" y="280" as="sourcePoint" />
            <mxPoint x="469.09000000000003" y="75" as="targetPoint" />
          </mxGeometry>
        </mxCell>
        <mxCell id="u8uAa5u7nfPZjOfmbg5F-21" value="" style="shape=message;html=1;outlineConnect=0;labelPosition=left;verticalLabelPosition=middle;align=right;verticalAlign=middle;spacingRight=5;labelBackgroundColor=#ffffff;" vertex="1" parent="u8uAa5u7nfPZjOfmbg5F-20">
          <mxGeometry width="24" height="16" relative="1" as="geometry">
            <mxPoint x="8" y="-8" as="offset" />
          </mxGeometry>
        </mxCell>
        <mxCell id="u8uAa5u7nfPZjOfmbg5F-22" style="edgeStyle=orthogonalEdgeStyle;rounded=0;orthogonalLoop=1;jettySize=auto;html=1;exitX=1;exitY=0.5;exitDx=0;exitDy=0;exitPerimeter=0;" edge="1" parent="1" source="u8uAa5u7nfPZjOfmbg5F-12" target="u8uAa5u7nfPZjOfmbg5F-18">
          <mxGeometry relative="1" as="geometry" />
        </mxCell>
        <mxCell id="u8uAa5u7nfPZjOfmbg5F-23" style="edgeStyle=orthogonalEdgeStyle;rounded=0;orthogonalLoop=1;jettySize=auto;html=1;exitX=0.5;exitY=1;exitDx=0;exitDy=0;exitPerimeter=0;entryX=0.5;entryY=0;entryDx=0;entryDy=0;" edge="1" parent="1" source="u8uAa5u7nfPZjOfmbg5F-17" target="u8uAa5u7nfPZjOfmbg5F-2">
          <mxGeometry relative="1" as="geometry" />
        </mxCell>
        <mxCell id="u8uAa5u7nfPZjOfmbg5F-24" value="Nachbestellung Zentrallager" style="text;html=1;align=left;verticalAlign=middle;whiteSpace=wrap;rounded=0;fontSize=24;fontStyle=1" vertex="1" parent="1">
          <mxGeometry x="40" y="1210" width="400" height="50" as="geometry" />
        </mxCell>
      </root>
    </mxGraphModel>
  </diagram>
</mxfile>
